<?xml version="1.0" encoding="UTF-8"?>
<svg width="31px" height="51px" viewBox="0 0 31 51" version="1.1" xmlns="http://www.w3.org/2000/svg" xmlns:xlink="http://www.w3.org/1999/xlink">
    <title>lightbulb</title>
    <g id="Page-1" stroke="none" stroke-width="1" fill="none" fill-rule="evenodd">
        <path d="M19.8683605,17.5 L15.5,13.1336207 L10.3012048,17.5 L15.5,21.8297136 L15.5477988,49.8926495 C9.85198886,49.7354903 7.46531382,49.3077551 8.38777371,48.6094438 C9.77146355,47.5619769 22.568759,48.6094438 22.568759,47.2649547 C22.568759,45.9204657 8.38777371,46.7555673 8.38777371,45.2580842 C8.38777371,43.7606011 22.568759,44.8693236 22.568759,43.2647105 C22.568759,41.6600973 8.38777371,43.0509405 8.38777371,41.2848336 C8.38777371,39.5187266 12.6663312,40.1299803 22.568759,39.4463524 C22.568759,30.7619184 29.8933923,26.339845 30,17.5 C30.14574,5.41532599 22.5690241,1 15.5,1 C9.30120485,1 1.0695425,5.28532841 1.10736399,17.5 C1.1342726,26.1902921 8.30120485,30.7701503 8.30120485,38.4463524" id="lightbulb" stroke="#4e4e4e"></path>
    </g>
</svg>
